<svg width="351" height="52" viewBox="0 0 351 52" fill="none" xmlns="http://www.w3.org/2000/svg">
<path fill-rule="evenodd" clip-rule="evenodd" d="M32.2443 25.446L25.5581 34.0936C25.2843 34.4596 24.8735 34.6884 24.4171 34.7342C23.9607 34.8028 23.5043 34.6655 23.1392 34.391L16.704 29.3351L10.9306 36.8618C10.6112 37.2964 10.0863 37.5252 9.58428 37.5252C9.21917 37.5252 8.85405 37.4108 8.53458 37.1592C7.78153 36.5872 7.64461 35.512 8.2151 34.7571L15.061 25.8577C15.3349 25.4917 15.7456 25.2629 16.202 25.2172C16.6584 25.1485 17.1148 25.2858 17.4799 25.5603L23.9151 30.6162L29.5287 23.3412C30.1221 22.5862 31.1946 22.449 31.9476 23.0438C32.6779 23.6158 32.8148 24.691 32.2443 25.446ZM43.8824 19.9782C42.6729 20.5501 41.3037 20.8704 39.8889 20.8704C34.5491 20.8704 30.1905 16.5008 30.1905 11.1475C30.1905 9.68339 30.51 8.31074 31.1033 7.07536C28.5931 6.54918 25.6722 6.29753 22.2949 6.29753C5.84185 6.29753 0 12.1313 0 28.6488C0 45.1663 5.84185 51 22.2949 51C38.7707 51 44.6126 45.1663 44.6126 28.6488C44.6126 25.3316 44.3844 22.449 43.8824 19.9782Z" fill="#551BF8"/>
<path fill-rule="evenodd" clip-rule="evenodd" d="M39.8884 16.2948C40.8468 16.2948 41.7596 16.0203 42.5127 15.5628C43.9959 14.6705 45 13.0234 45 11.1474C45 8.31062 42.718 6 39.8884 6C38.04 6 36.4198 6.98373 35.507 8.47076C35.0278 9.24859 34.7539 10.1637 34.7539 11.1474C34.7539 13.9842 37.0587 16.2948 39.8884 16.2948Z" fill="#551BF8"/>
<path d="M76.0826 18.0295C76.5945 17.7968 77.3856 17.5409 78.4559 17.2616C79.5728 16.9359 80.6897 16.773 81.8066 16.773C83.7611 16.773 85.3899 17.0755 86.6929 17.6805C87.9959 18.2389 88.787 19.0766 89.0662 20.1934C89.5781 22.1014 90.0435 23.8931 90.4623 25.5684C90.9277 27.1972 91.3698 28.7794 91.7886 30.3151C92.2074 31.8043 92.603 33.2934 92.9753 34.7826C93.3941 36.2718 93.7897 37.8307 94.162 39.4595H94.511C94.9298 36.6208 95.3021 33.9217 95.6279 31.3622C95.9536 28.7561 96.2561 26.2199 96.5353 23.7535C96.8145 21.2405 97.0938 18.7741 97.373 16.3542C97.6522 13.8878 97.9314 11.3981 98.2106 8.88509C99.9325 7.90783 101.771 7.4192 103.725 7.4192C105.447 7.4192 106.936 7.79149 108.193 8.53607C109.449 9.28066 110.077 10.5371 110.077 12.3055C110.077 13.3293 109.961 14.7952 109.728 16.7032C109.542 18.5647 109.263 20.6588 108.891 22.9856C108.565 25.3124 108.169 27.7556 107.704 30.3151C107.239 32.8746 106.75 35.3178 106.238 37.6446C105.726 39.9714 105.191 42.0888 104.633 43.9968C104.121 45.8583 103.632 47.3009 103.167 48.3247C102.469 48.9762 101.329 49.5114 99.7463 49.9302C98.1641 50.349 96.5353 50.5584 94.86 50.5584C92.6728 50.5584 90.8114 50.2792 89.2757 49.7208C87.7865 49.1158 86.879 48.2782 86.5533 47.2078C85.9483 45.3464 85.2968 43.1359 84.5987 40.5764C83.9007 38.0169 83.1561 35.2014 82.365 32.13C81.7135 35.1549 81.0387 38.11 80.3407 40.9952C79.6426 43.8805 79.0144 46.3236 78.4559 48.3247C77.7579 48.9762 76.7108 49.5114 75.3147 49.9302C73.9186 50.349 72.3829 50.5584 70.7076 50.5584C68.6135 50.5584 66.7055 50.2792 64.9837 49.7208C63.3083 49.1158 62.2147 48.2782 61.7028 47.2078C61.284 46.3702 60.8186 45.1369 60.3067 43.5082C59.8414 41.8329 59.3528 39.9481 58.8408 37.854C58.3289 35.7133 57.7938 33.4098 57.2353 30.9433C56.7234 28.4769 56.2348 26.0105 55.7694 23.5441C55.3506 21.0776 54.9551 18.681 54.5828 16.3542C54.2105 13.9808 53.9313 11.8169 53.7451 9.86236C54.3966 9.25739 55.3041 8.69895 56.4675 8.18705C57.6309 7.67515 58.8874 7.4192 60.2369 7.4192C62.0053 7.4192 63.448 7.81476 64.5648 8.60588C65.7282 9.35046 66.4496 10.6302 66.7288 12.4451C67.4734 17.1918 68.0783 21.1474 68.5437 24.3119C69.0556 27.4764 69.4511 30.0824 69.7304 32.13C70.0561 34.1311 70.2888 35.6901 70.4284 36.8069C70.568 37.9238 70.7076 38.808 70.8472 39.4595H71.1963C71.6151 37.5981 72.0106 35.8762 72.3829 34.294C72.7552 32.7117 73.1275 31.1295 73.4998 29.5473C73.9186 27.9185 74.3375 26.1966 74.7563 24.3817C75.1751 22.5203 75.6172 20.4029 76.0826 18.0295ZM133.149 51.1169C130.403 51.1169 127.844 50.7446 125.47 50C123.144 49.2089 121.096 48.0455 119.328 46.5098C117.606 44.9741 116.233 43.0428 115.209 40.716C114.232 38.3892 113.743 35.6668 113.743 32.5489C113.743 29.4775 114.232 26.8481 115.209 24.6609C116.233 22.4272 117.559 20.6123 119.188 19.2162C120.817 17.7735 122.678 16.7265 124.772 16.075C126.867 15.3769 129.007 15.0279 131.194 15.0279C133.661 15.0279 135.895 15.4002 137.896 16.1448C139.943 16.8894 141.688 17.9132 143.131 19.2162C144.62 20.5192 145.76 22.0782 146.551 23.8931C147.389 25.708 147.808 27.6858 147.808 29.8265C147.808 31.4087 147.366 32.6187 146.482 33.4563C145.597 34.294 144.364 34.8291 142.782 35.0618L125.54 37.6446C126.052 39.1803 127.099 40.3437 128.681 41.1348C130.264 41.8794 132.079 42.2517 134.126 42.2517C136.034 42.2517 137.826 42.019 139.501 41.5536C141.223 41.0417 142.619 40.46 143.689 39.8085C144.434 40.2739 145.062 40.9254 145.574 41.7631C146.086 42.6007 146.342 43.4849 146.342 44.4156C146.342 46.5098 145.365 48.0687 143.41 49.0925C141.921 49.8837 140.246 50.4188 138.384 50.698C136.523 50.9773 134.778 51.1169 133.149 51.1169ZM131.194 23.6837C130.078 23.6837 129.1 23.8698 128.263 24.2421C127.471 24.6144 126.82 25.103 126.308 25.708C125.796 26.2664 125.401 26.9179 125.121 27.6625C124.889 28.3606 124.749 29.0819 124.703 29.8265L136.639 27.8719C136.5 26.9412 135.988 26.0105 135.103 25.0798C134.219 24.149 132.916 23.6837 131.194 23.6837ZM153.659 4.55721C154.125 4.4176 154.869 4.27799 155.893 4.13839C156.917 3.95224 157.964 3.85917 159.034 3.85917C160.058 3.85917 160.966 3.92897 161.757 4.06858C162.594 4.20819 163.293 4.48741 163.851 4.90623C164.409 5.32506 164.828 5.90677 165.107 6.65135C165.387 7.3494 165.526 8.28012 165.526 9.44353V16.2844C166.69 15.819 167.783 15.4933 168.807 15.3071C169.877 15.121 171.041 15.0279 172.297 15.0279C174.531 15.0279 176.648 15.4235 178.65 16.2146C180.651 17.0057 182.419 18.1691 183.955 19.7048C185.49 21.194 186.7 23.0554 187.585 25.2892C188.469 27.5229 188.911 30.1057 188.911 33.0375C188.911 36.0624 188.445 38.7149 187.515 40.9952C186.631 43.229 185.374 45.0904 183.745 46.5796C182.116 48.0687 180.115 49.2089 177.742 50C175.415 50.7446 172.832 51.1169 169.994 51.1169C166.922 51.1169 164.316 50.7446 162.176 50C160.035 49.302 158.22 48.4178 156.731 47.3474C154.683 45.9048 153.659 44.0433 153.659 41.7631V4.55721ZM169.994 41.7631C172.134 41.7631 173.786 41.0417 174.95 39.5991C176.16 38.11 176.765 35.9227 176.765 33.0375C176.765 30.1057 176.16 27.9185 174.95 26.4759C173.74 25.0332 172.111 24.3119 170.064 24.3119C169.133 24.3119 168.318 24.405 167.62 24.5911C166.969 24.7773 166.248 25.0565 165.456 25.4288V40.6462C165.968 40.9719 166.573 41.2512 167.271 41.4838C168.016 41.67 168.923 41.7631 169.994 41.7631Z" fill="#551BF8"/>
<path d="M207.887 34.294V49.7208C207.375 49.8604 206.56 50 205.444 50.1396C204.327 50.2792 203.233 50.349 202.163 50.349C201.092 50.349 200.138 50.256 199.301 50.0698C198.51 49.9302 197.835 49.651 197.276 49.2321C196.718 48.8133 196.299 48.2316 196.02 47.487C195.741 46.7425 195.601 45.7652 195.601 44.5552V7.69842C196.113 7.60534 196.927 7.489 198.044 7.3494C199.161 7.16325 200.231 7.07018 201.255 7.07018C202.326 7.07018 203.256 7.16325 204.047 7.3494C204.885 7.489 205.583 7.76822 206.142 8.18705C206.7 8.60588 207.119 9.18758 207.398 9.93217C207.677 10.6767 207.817 11.654 207.817 12.864V23.9629L222.336 7.27959C225.501 7.27959 227.758 7.88456 229.107 9.09451C230.503 10.2579 231.201 11.654 231.201 13.2828C231.201 14.4927 230.899 15.6329 230.294 16.7032C229.689 17.7735 228.712 18.9835 227.362 20.333L218.637 29.0586C219.8 30.3616 221.01 31.7112 222.266 33.1073C223.569 34.5034 224.826 35.8762 226.036 37.2258C227.292 38.5288 228.479 39.7853 229.596 40.9952C230.759 42.2052 231.76 43.2522 232.598 44.1364C232.598 45.1602 232.411 46.0677 232.039 46.8588C231.667 47.6499 231.155 48.3247 230.503 48.8831C229.898 49.4416 229.2 49.8604 228.409 50.1396C227.618 50.4188 226.781 50.5584 225.896 50.5584C223.988 50.5584 222.429 50.0931 221.219 49.1623C220.009 48.1851 218.846 47.0449 217.729 45.7419L207.887 34.294ZM237.02 6.65135C237.02 4.88296 237.601 3.3938 238.765 2.18385C239.975 0.973908 241.557 0.368936 243.512 0.368936C245.466 0.368936 247.025 0.973908 248.189 2.18385C249.398 3.3938 250.003 4.88296 250.003 6.65135C250.003 8.41973 249.398 9.9089 248.189 11.1188C247.025 12.3288 245.466 12.9338 243.512 12.9338C241.557 12.9338 239.975 12.3288 238.765 11.1188C237.601 9.9089 237.02 8.41973 237.02 6.65135ZM249.445 49.9302C248.933 50.0233 248.165 50.1396 247.141 50.2792C246.164 50.4654 245.164 50.5584 244.14 50.5584C243.116 50.5584 242.185 50.4886 241.348 50.349C240.557 50.2094 239.882 49.9302 239.323 49.5114C238.765 49.0925 238.323 48.5341 237.997 47.8361C237.718 47.0915 237.578 46.1375 237.578 44.9741V16.5636C238.09 16.4705 238.835 16.3542 239.812 16.2146C240.836 16.0284 241.86 15.9354 242.883 15.9354C243.907 15.9354 244.815 16.0052 245.606 16.1448C246.443 16.2844 247.141 16.5636 247.7 16.9824C248.258 17.4013 248.677 17.983 248.956 18.7275C249.282 19.4256 249.445 20.3563 249.445 21.5197V49.9302ZM273.264 15.0279C275.172 15.0279 277.034 15.3071 278.849 15.8656C280.71 16.3775 282.316 17.1686 283.665 18.2389C285.061 17.3082 286.62 16.5403 288.342 15.9354C290.11 15.3304 292.228 15.0279 294.694 15.0279C296.463 15.0279 298.184 15.2606 299.86 15.7259C301.582 16.1913 303.094 16.9359 304.397 17.9597C305.747 18.937 306.817 20.2632 307.608 21.9386C308.399 23.5673 308.795 25.5684 308.795 27.9417V49.9302C308.329 50.0698 307.585 50.2094 306.561 50.349C305.584 50.4886 304.56 50.5584 303.49 50.5584C302.466 50.5584 301.535 50.4886 300.697 50.349C299.906 50.2094 299.231 49.9302 298.673 49.5114C298.115 49.0925 297.673 48.5341 297.347 47.8361C297.068 47.0915 296.928 46.1375 296.928 44.9741V28.2908C296.928 26.8947 296.532 25.8941 295.741 25.2892C294.95 24.6377 293.88 24.3119 292.53 24.3119C291.879 24.3119 291.181 24.4748 290.436 24.8005C289.692 25.0798 289.133 25.3822 288.761 25.708C288.807 25.8941 288.831 26.0803 288.831 26.2664C288.831 26.406 288.831 26.5457 288.831 26.6853V49.9302C288.319 50.0698 287.551 50.2094 286.527 50.349C285.55 50.4886 284.549 50.5584 283.525 50.5584C282.502 50.5584 281.571 50.4886 280.733 50.349C279.942 50.2094 279.267 49.9302 278.709 49.5114C278.151 49.0925 277.708 48.5341 277.383 47.8361C277.103 47.0915 276.964 46.1375 276.964 44.9741V28.2908C276.964 26.8947 276.522 25.8941 275.638 25.2892C274.8 24.6377 273.776 24.3119 272.566 24.3119C271.728 24.3119 271.007 24.4515 270.402 24.7307C269.797 24.9634 269.285 25.1961 268.866 25.4288V49.9302C268.401 50.0698 267.657 50.2094 266.633 50.349C265.655 50.4886 264.632 50.5584 263.561 50.5584C262.538 50.5584 261.607 50.4886 260.769 50.349C259.978 50.2094 259.303 49.9302 258.745 49.5114C258.186 49.0925 257.744 48.5341 257.419 47.8361C257.139 47.0915 257 46.1375 257 44.9741V23.8931C257 22.6366 257.256 21.6361 257.768 20.8915C258.326 20.1469 259.071 19.4489 260.001 18.7973C261.584 17.6805 263.538 16.773 265.865 16.075C268.238 15.3769 270.705 15.0279 273.264 15.0279ZM330.553 42.4611C331.344 42.4611 332.205 42.3913 333.136 42.2517C334.113 42.0655 334.834 41.8329 335.3 41.5536V35.9693L330.274 36.3881C328.971 36.4812 327.9 36.7604 327.063 37.2258C326.225 37.6911 325.806 38.3892 325.806 39.3199C325.806 40.2506 326.155 41.0185 326.853 41.6234C327.598 42.1819 328.831 42.4611 330.553 42.4611ZM329.995 15.0279C332.508 15.0279 334.788 15.2838 336.835 15.7958C338.93 16.3077 340.698 17.0988 342.141 18.1691C343.63 19.1929 344.77 20.5192 345.561 22.148C346.352 23.7302 346.748 25.6149 346.748 27.8021V43.4384C346.748 44.6483 346.399 45.6488 345.701 46.44C345.049 47.1845 344.258 47.8361 343.327 48.3945C340.302 50.2094 336.044 51.1169 330.553 51.1169C328.087 51.1169 325.853 50.8842 323.852 50.4188C321.897 49.9535 320.199 49.2554 318.756 48.3247C317.36 47.394 316.266 46.2073 315.475 44.7647C314.731 43.322 314.358 41.6467 314.358 39.7387C314.358 36.5277 315.312 34.0613 317.22 32.3394C319.128 30.6176 322.083 29.5473 326.086 29.1284L335.23 28.1512V27.6625C335.23 26.313 334.625 25.359 333.415 24.8005C332.252 24.1956 330.553 23.8931 328.319 23.8931C326.551 23.8931 324.829 24.0792 323.154 24.4515C321.478 24.8238 319.966 25.2892 318.616 25.8476C318.011 25.4288 317.5 24.8005 317.081 23.9629C316.662 23.0787 316.453 22.1712 316.453 21.2405C316.453 20.0306 316.732 19.0766 317.29 18.3785C317.895 17.6339 318.803 17.0057 320.013 16.4938C321.362 15.9819 322.944 15.6096 324.759 15.3769C326.621 15.1442 328.366 15.0279 329.995 15.0279Z" fill="#020917"/>
</svg>
